<?xml version="1.0" encoding="utf-8"?>
<!-- Generator: Adobe Illustrator 19.0.0, SVG Export Plug-In . SVG Version: 6.00 Build 0)  -->
<svg version="1.1" id="Layer_1" xmlns="http://www.w3.org/2000/svg" xmlns:xlink="http://www.w3.org/1999/xlink" x="0px" y="0px"
	 viewBox="0 0 197 62.2" style="enable-background:new 0 0 197 62.2;" xml:space="preserve">
<style type="text/css">
	.st0{fill:#231F20;stroke:#231F20;stroke-width:0.853;stroke-miterlimit:22.9256;}
	.st1{fill:#231F20;}
</style>
<g>
	<g>
		<path class="st0" d="M22.3,5.7c-0.2,0.3-0.4,0.5-0.7,0.5c-0.2,0-0.5-0.2-0.9-0.5c-0.4-0.3-0.9-0.7-1.5-1.1
			c-0.6-0.4-1.4-0.8-2.3-1.1C15.9,3.1,14.8,3,13.4,3s-2.6,0.2-3.6,0.6c-1,0.4-1.9,0.9-2.6,1.6C6.5,5.8,5.9,6.6,5.6,7.5
			C5.2,8.4,5,9.3,5,10.3c0,1.3,0.3,2.3,0.8,3.2C6.4,14.3,7.1,15,8,15.6c0.9,0.6,1.9,1.1,3,1.5c1.1,0.4,2.3,0.8,3.5,1.2
			c1.2,0.4,2.4,0.8,3.5,1.3c1.1,0.5,2.1,1.1,3,1.8c0.9,0.7,1.6,1.6,2.1,2.6c0.5,1,0.8,2.3,0.8,3.9c0,1.6-0.3,3.1-0.8,4.5
			c-0.5,1.4-1.3,2.6-2.4,3.6c-1,1-2.3,1.8-3.8,2.4s-3.2,0.9-5.1,0.9c-2.5,0-4.6-0.4-6.4-1.3c-1.8-0.9-3.4-2.1-4.7-3.6l0.7-1.2
			c0.2-0.3,0.5-0.4,0.7-0.4c0.2,0,0.4,0.1,0.6,0.3s0.6,0.5,0.9,0.8c0.4,0.3,0.8,0.6,1.3,1c0.5,0.4,1.1,0.7,1.7,1
			c0.7,0.3,1.4,0.6,2.3,0.8S10.9,37,12,37c1.5,0,2.8-0.2,4-0.7s2.2-1.1,3-1.9c0.8-0.8,1.4-1.7,1.9-2.8c0.4-1.1,0.6-2.2,0.6-3.5
			c0-1.3-0.3-2.4-0.8-3.3c-0.5-0.9-1.3-1.6-2.1-2.2c-0.9-0.6-1.9-1.1-3-1.5c-1.1-0.4-2.3-0.8-3.5-1.1c-1.2-0.4-2.4-0.8-3.5-1.3
			c-1.1-0.5-2.1-1.1-3-1.8c-0.9-0.7-1.6-1.6-2.1-2.7c-0.5-1.1-0.8-2.4-0.8-4c0-1.3,0.2-2.5,0.7-3.7s1.2-2.2,2.1-3.1
			C6.2,2.8,7.4,2,8.7,1.5c1.4-0.5,2.9-0.8,4.7-0.8c2,0,3.7,0.3,5.3,0.9c1.6,0.6,3,1.6,4.3,2.9L22.3,5.7z"/>
		<path class="st0" d="M47.6,38.8h-2.7V1.1h2.7V38.8z"/>
		<path class="st0" d="M90.5,29.5c0.1-0.3,0.2-0.6,0.3-0.8c0.1-0.3,0.2-0.5,0.4-0.8l14.8-26.2c0.1-0.2,0.3-0.4,0.4-0.4
			c0.1-0.1,0.3-0.1,0.6-0.1h1.9v37.7h-2.4V6.7c0-0.5,0-1,0.1-1.5L91.8,31.6c-0.2,0.5-0.6,0.7-1.1,0.7h-0.4c-0.4,0-0.8-0.2-1.1-0.7
			L74,5.2c0.1,0.5,0.1,1,0.1,1.5v32.1h-2.4V1.1h1.9c0.2,0,0.4,0,0.6,0.1c0.2,0.1,0.3,0.2,0.4,0.4l15.2,26.2
			C90.1,28.4,90.3,28.9,90.5,29.5z"/>
		<path class="st0" d="M150.9,29.5c0.1-0.3,0.2-0.6,0.3-0.8c0.1-0.3,0.2-0.5,0.4-0.8l14.8-26.2c0.1-0.2,0.3-0.4,0.4-0.4
			c0.1-0.1,0.3-0.1,0.6-0.1h1.9v37.7H167V6.7c0-0.5,0-1,0.1-1.5l-14.8,26.4c-0.2,0.5-0.6,0.7-1.1,0.7h-0.4c-0.4,0-0.8-0.2-1.1-0.7
			L134.4,5.2c0.1,0.5,0.1,1,0.1,1.5v32.1h-2.4V1.1h1.9c0.2,0,0.4,0,0.6,0.1c0.2,0.1,0.3,0.2,0.4,0.4l15.2,26.2
			C150.5,28.4,150.7,28.9,150.9,29.5z"/>
		<path class="st0" d="M196.2,38.8h-2.7V1.1h2.7V38.8z"/>
	</g>
	<g>
		<g>
			<path class="st1" d="M60.7,61.1h3.8v1h-5v-8.9h1.2V61.1z"/>
			<path class="st1" d="M80.1,57.7c0,0.7-0.1,1.3-0.3,1.8c-0.2,0.6-0.5,1-0.9,1.4c-0.4,0.4-0.8,0.7-1.4,0.9
				c-0.5,0.2-1.1,0.3-1.8,0.3s-1.2-0.1-1.8-0.3c-0.5-0.2-1-0.5-1.4-0.9c-0.4-0.4-0.7-0.9-0.9-1.4c-0.2-0.6-0.3-1.2-0.3-1.8
				c0-0.7,0.1-1.3,0.3-1.8c0.2-0.6,0.5-1,0.9-1.4c0.4-0.4,0.8-0.7,1.4-0.9c0.5-0.2,1.1-0.3,1.8-0.3s1.2,0.1,1.8,0.3
				c0.5,0.2,1,0.5,1.4,0.9c0.4,0.4,0.7,0.9,0.9,1.4C80,56.4,80.1,57,80.1,57.7z M78.9,57.7c0-0.5-0.1-1-0.2-1.5
				c-0.1-0.4-0.4-0.8-0.6-1.1c-0.3-0.3-0.6-0.5-1-0.7c-0.4-0.2-0.8-0.2-1.3-0.2c-0.5,0-0.9,0.1-1.3,0.2c-0.4,0.2-0.7,0.4-1,0.7
				c-0.3,0.3-0.5,0.7-0.6,1.1c-0.1,0.4-0.2,0.9-0.2,1.5c0,0.5,0.1,1,0.2,1.5c0.1,0.4,0.4,0.8,0.6,1.1c0.3,0.3,0.6,0.5,1,0.7
				c0.4,0.2,0.8,0.2,1.3,0.2c0.5,0,0.9-0.1,1.3-0.2c0.4-0.2,0.7-0.4,1-0.7c0.3-0.3,0.5-0.7,0.6-1.1S78.9,58.2,78.9,57.7z"/>
			<path class="st1" d="M89.1,53.3c0.1,0,0.1,0.1,0.2,0.2l5.1,6.7c0-0.1,0-0.2,0-0.3c0-0.1,0-0.2,0-0.3v-6.3h1.1v8.9h-0.6
				c-0.1,0-0.2,0-0.2,0c-0.1,0-0.1-0.1-0.2-0.2l-5.1-6.7c0,0.1,0,0.2,0,0.3c0,0.1,0,0.2,0,0.3v6.3h-1.1v-8.9h0.6
				C88.9,53.3,89,53.3,89.1,53.3z"/>
			<path class="st1" d="M111.7,57.7c0,0.7-0.1,1.3-0.3,1.8c-0.2,0.5-0.5,1-0.9,1.4c-0.4,0.4-0.8,0.7-1.4,0.9
				c-0.5,0.2-1.1,0.3-1.8,0.3h-3.3v-8.9h3.3c0.7,0,1.2,0.1,1.8,0.3c0.5,0.2,1,0.5,1.4,0.9c0.4,0.4,0.7,0.9,0.9,1.4
				C111.6,56.4,111.7,57,111.7,57.7z M110.5,57.7c0-0.5-0.1-1-0.2-1.5c-0.1-0.4-0.4-0.8-0.6-1.1c-0.3-0.3-0.6-0.5-1-0.7
				c-0.4-0.2-0.8-0.2-1.3-0.2h-2.1v6.9h2.1c0.5,0,0.9-0.1,1.3-0.2c0.4-0.2,0.7-0.4,1-0.7c0.3-0.3,0.5-0.7,0.6-1.1
				C110.4,58.7,110.5,58.2,110.5,57.7z"/>
			<path class="st1" d="M128.1,57.7c0,0.7-0.1,1.3-0.3,1.8c-0.2,0.6-0.5,1-0.9,1.4c-0.4,0.4-0.8,0.7-1.4,0.9
				c-0.5,0.2-1.1,0.3-1.8,0.3c-0.7,0-1.2-0.1-1.8-0.3c-0.5-0.2-1-0.5-1.4-0.9c-0.4-0.4-0.7-0.9-0.9-1.4c-0.2-0.6-0.3-1.2-0.3-1.8
				c0-0.7,0.1-1.3,0.3-1.8c0.2-0.6,0.5-1,0.9-1.4c0.4-0.4,0.8-0.7,1.4-0.9c0.5-0.2,1.1-0.3,1.8-0.3c0.7,0,1.2,0.1,1.8,0.3
				c0.5,0.2,1,0.5,1.4,0.9c0.4,0.4,0.7,0.9,0.9,1.4C128,56.4,128.1,57,128.1,57.7z M126.8,57.7c0-0.5-0.1-1-0.2-1.5
				c-0.1-0.4-0.4-0.8-0.6-1.1c-0.3-0.3-0.6-0.5-1-0.7c-0.4-0.2-0.8-0.2-1.3-0.2c-0.5,0-0.9,0.1-1.3,0.2c-0.4,0.2-0.7,0.4-1,0.7
				c-0.3,0.3-0.5,0.7-0.6,1.1c-0.1,0.4-0.2,0.9-0.2,1.5c0,0.5,0.1,1,0.2,1.5c0.1,0.4,0.4,0.8,0.6,1.1c0.3,0.3,0.6,0.5,1,0.7
				c0.4,0.2,0.8,0.2,1.3,0.2c0.5,0,0.9-0.1,1.3-0.2c0.4-0.2,0.7-0.4,1-0.7c0.3-0.3,0.5-0.7,0.6-1.1S126.8,58.2,126.8,57.7z"/>
			<path class="st1" d="M137.1,53.3c0.1,0,0.1,0.1,0.2,0.2l5.1,6.7c0-0.1,0-0.2,0-0.3c0-0.1,0-0.2,0-0.3v-6.3h1.1v8.9h-0.6
				c-0.1,0-0.2,0-0.2,0c-0.1,0-0.1-0.1-0.2-0.2l-5.1-6.7c0,0.1,0,0.2,0,0.3c0,0.1,0,0.2,0,0.3v6.3h-1.1v-8.9h0.6
				C136.9,53.3,137,53.3,137.1,53.3z"/>
		</g>
	</g>
</g>
</svg>
